<mxfile host="65bd71144e">
    <diagram name="FabManage ERD" id="erd-diagram">
        <mxGraphModel dx="693" dy="568" grid="1" gridSize="10" guides="1" tooltips="1" connect="1" arrows="1" fold="1" page="1" pageScale="1" pageWidth="3000" pageHeight="2000" math="0" shadow="0">
            <root>
                <mxCell id="0"/>
                <mxCell id="1" parent="0"/>
                <mxCell id="project" value="PROJECT" style="swimlane;fontStyle=1;align=center;verticalAlign=top;childLayout=stackLayout;horizontal=1;startSize=30;horizontalStack=0;resizeParent=1;resizeLast=0;collapsible=1;marginBottom=0;whiteSpace=wrap;html=1;fillColor=#dae8fc;strokeColor=#6c8ebf;" parent="1" vertex="1">
                    <mxGeometry x="70" y="30" width="200" height="400" as="geometry"/>
                </mxCell>
                <mxCell id="project-id" value="id (PK)" style="text;strokeColor=none;fillColor=none;align=left;verticalAlign=middle;spacingLeft=4;spacingRight=4;overflow=hidden;rotatable=0;points=[[0,0.5],[1,0.5]];portConstraint=eastwest;whiteSpace=wrap;html=1;fontColor=#d79b00;" parent="project" vertex="1">
                    <mxGeometry y="30" width="200" height="20" as="geometry"/>
                </mxCell>
                <mxCell id="project-numer" value="numer" style="text;strokeColor=none;fillColor=none;align=left;verticalAlign=middle;spacingLeft=4;spacingRight=4;overflow=hidden;rotatable=0;points=[[0,0.5],[1,0.5]];portConstraint=eastwest;whiteSpace=wrap;html=1;" parent="project" vertex="1">
                    <mxGeometry y="50" width="200" height="20" as="geometry"/>
                </mxCell>
                <mxCell id="project-name" value="name" style="text;strokeColor=none;fillColor=none;align=left;verticalAlign=middle;spacingLeft=4;spacingRight=4;overflow=hidden;rotatable=0;points=[[0,0.5],[1,0.5]];portConstraint=eastwest;whiteSpace=wrap;html=1;" parent="project" vertex="1">
                    <mxGeometry y="70" width="200" height="20" as="geometry"/>
                </mxCell>
                <mxCell id="project-typ" value="typ (enum)" style="text;strokeColor=none;fillColor=none;align=left;verticalAlign=middle;spacingLeft=4;spacingRight=4;overflow=hidden;rotatable=0;points=[[0,0.5],[1,0.5]];portConstraint=eastwest;whiteSpace=wrap;html=1;fontColor=#d79b00;" parent="project" vertex="1">
                    <mxGeometry y="90" width="200" height="20" as="geometry"/>
                </mxCell>
                <mxCell id="project-clientId" value="clientId (FK)" style="text;strokeColor=none;fillColor=none;align=left;verticalAlign=middle;spacingLeft=4;spacingRight=4;overflow=hidden;rotatable=0;points=[[0,0.5],[1,0.5]];portConstraint=eastwest;whiteSpace=wrap;html=1;fontColor=#d79b00;" parent="project" vertex="1">
                    <mxGeometry y="110" width="200" height="20" as="geometry"/>
                </mxCell>
                <mxCell id="project-status" value="status (enum)" style="text;strokeColor=none;fillColor=none;align=left;verticalAlign=middle;spacingLeft=4;spacingRight=4;overflow=hidden;rotatable=0;points=[[0,0.5],[1,0.5]];portConstraint=eastwest;whiteSpace=wrap;html=1;fontColor=#d79b00;" parent="project" vertex="1">
                    <mxGeometry y="130" width="200" height="20" as="geometry"/>
                </mxCell>
                <mxCell id="project-budget" value="budget" style="text;strokeColor=none;fillColor=none;align=left;verticalAlign=middle;spacingLeft=4;spacingRight=4;overflow=hidden;rotatable=0;points=[[0,0.5],[1,0.5]];portConstraint=eastwest;whiteSpace=wrap;html=1;" parent="project" vertex="1">
                    <mxGeometry y="150" width="200" height="20" as="geometry"/>
                </mxCell>
                <mxCell id="project-manager" value="manager" style="text;strokeColor=none;fillColor=none;align=left;verticalAlign=middle;spacingLeft=4;spacingRight=4;overflow=hidden;rotatable=0;points=[[0,0.5],[1,0.5]];portConstraint=eastwest;whiteSpace=wrap;html=1;" parent="project" vertex="1">
                    <mxGeometry y="170" width="200" height="20" as="geometry"/>
                </mxCell>
                <mxCell id="project-deadline" value="deadline" style="text;strokeColor=none;fillColor=none;align=left;verticalAlign=middle;spacingLeft=4;spacingRight=4;overflow=hidden;rotatable=0;points=[[0,0.5],[1,0.5]];portConstraint=eastwest;whiteSpace=wrap;html=1;" parent="project" vertex="1">
                    <mxGeometry y="190" width="200" height="20" as="geometry"/>
                </mxCell>
                <mxCell id="project-description" value="description" style="text;strokeColor=none;fillColor=none;align=left;verticalAlign=middle;spacingLeft=4;spacingRight=4;overflow=hidden;rotatable=0;points=[[0,0.5],[1,0.5]];portConstraint=eastwest;whiteSpace=wrap;html=1;" parent="project" vertex="1">
                    <mxGeometry y="210" width="200" height="20" as="geometry"/>
                </mxCell>
                <mxCell id="project-modules" value="modules (json)" style="text;strokeColor=none;fillColor=none;align=left;verticalAlign=middle;spacingLeft=4;spacingRight=4;overflow=hidden;rotatable=0;points=[[0,0.5],[1,0.5]];portConstraint=eastwest;whiteSpace=wrap;html=1;" parent="project" vertex="1">
                    <mxGeometry y="230" width="200" height="20" as="geometry"/>
                </mxCell>
                <mxCell id="project-speckle" value="speckle_stream_url" style="text;strokeColor=none;fillColor=none;align=left;verticalAlign=middle;spacingLeft=4;spacingRight=4;overflow=hidden;rotatable=0;points=[[0,0.5],[1,0.5]];portConstraint=eastwest;whiteSpace=wrap;html=1;" parent="project" vertex="1">
                    <mxGeometry y="250" width="200" height="20" as="geometry"/>
                </mxCell>
                <mxCell id="project-color" value="colorScheme (json)" style="text;strokeColor=none;fillColor=none;align=left;verticalAlign=middle;spacingLeft=4;spacingRight=4;overflow=hidden;rotatable=0;points=[[0,0.5],[1,0.5]];portConstraint=eastwest;whiteSpace=wrap;html=1;" parent="project" vertex="1">
                    <mxGeometry y="270" width="200" height="20" as="geometry"/>
                </mxCell>
                <mxCell id="project-created" value="created_at" style="text;strokeColor=none;fillColor=none;align=left;verticalAlign=middle;spacingLeft=4;spacingRight=4;overflow=hidden;rotatable=0;points=[[0,0.5],[1,0.5]];portConstraint=eastwest;whiteSpace=wrap;html=1;" parent="project" vertex="1">
                    <mxGeometry y="290" width="200" height="20" as="geometry"/>
                </mxCell>
                <mxCell id="project-updated" value="updated_at" style="text;strokeColor=none;fillColor=none;align=left;verticalAlign=middle;spacingLeft=4;spacingRight=4;overflow=hidden;rotatable=0;points=[[0,0.5],[1,0.5]];portConstraint=eastwest;whiteSpace=wrap;html=1;" parent="project" vertex="1">
                    <mxGeometry y="310" width="200" height="20" as="geometry"/>
                </mxCell>
                <mxCell id="project_group" value="PROJECT_GROUP" style="swimlane;fontStyle=1;align=center;verticalAlign=top;childLayout=stackLayout;horizontal=1;startSize=30;horizontalStack=0;resizeParent=1;resizeLast=0;collapsible=1;marginBottom=0;whiteSpace=wrap;html=1;fillColor=#dae8fc;strokeColor=#6c8ebf;" parent="1" vertex="1">
                    <mxGeometry x="100" y="900" width="200" height="150" as="geometry"/>
                </mxCell>
                <mxCell id="project_group-id" value="id (PK)" style="text;strokeColor=none;fillColor=none;align=left;verticalAlign=middle;spacingLeft=4;spacingRight=4;overflow=hidden;rotatable=0;points=[[0,0.5],[1,0.5]];portConstraint=eastwest;whiteSpace=wrap;html=1;fontColor=#d79b00;" parent="project_group" vertex="1">
                    <mxGeometry y="30" width="200" height="20" as="geometry"/>
                </mxCell>
                <mxCell id="project_group-project_id" value="project_id (FK)" style="text;strokeColor=none;fillColor=none;align=left;verticalAlign=middle;spacingLeft=4;spacingRight=4;overflow=hidden;rotatable=0;points=[[0,0.5],[1,0.5]];portConstraint=eastwest;whiteSpace=wrap;html=1;fontColor=#d79b00;" parent="project_group" vertex="1">
                    <mxGeometry y="50" width="200" height="20" as="geometry"/>
                </mxCell>
                <mxCell id="project_group-name" value="name" style="text;strokeColor=none;fillColor=none;align=left;verticalAlign=middle;spacingLeft=4;spacingRight=4;overflow=hidden;rotatable=0;points=[[0,0.5],[1,0.5]];portConstraint=eastwest;whiteSpace=wrap;html=1;" parent="project_group" vertex="1">
                    <mxGeometry y="70" width="200" height="20" as="geometry"/>
                </mxCell>
                <mxCell id="project_group-description" value="description" style="text;strokeColor=none;fillColor=none;align=left;verticalAlign=middle;spacingLeft=4;spacingRight=4;overflow=hidden;rotatable=0;points=[[0,0.5],[1,0.5]];portConstraint=eastwest;whiteSpace=wrap;html=1;" parent="project_group" vertex="1">
                    <mxGeometry y="90" width="200" height="20" as="geometry"/>
                </mxCell>
                <mxCell id="project_group-thumbnail" value="thumbnail" style="text;strokeColor=none;fillColor=none;align=left;verticalAlign=middle;spacingLeft=4;spacingRight=4;overflow=hidden;rotatable=0;points=[[0,0.5],[1,0.5]];portConstraint=eastwest;whiteSpace=wrap;html=1;" parent="project_group" vertex="1">
                    <mxGeometry y="110" width="200" height="20" as="geometry"/>
                </mxCell>
                <mxCell id="client" value="CLIENT" style="swimlane;fontStyle=1;align=center;verticalAlign=top;childLayout=stackLayout;horizontal=1;startSize=30;horizontalStack=0;resizeParent=1;resizeLast=0;collapsible=1;marginBottom=0;whiteSpace=wrap;html=1;fillColor=#d5e8d4;strokeColor=#82b366;" parent="1" vertex="1">
                    <mxGeometry x="410" y="90" width="200" height="300" as="geometry"/>
                </mxCell>
                <mxCell id="client-id" value="id (PK)" style="text;strokeColor=none;fillColor=none;align=left;verticalAlign=middle;spacingLeft=4;spacingRight=4;overflow=hidden;rotatable=0;points=[[0,0.5],[1,0.5]];portConstraint=eastwest;whiteSpace=wrap;html=1;fontColor=#d79b00;" parent="client" vertex="1">
                    <mxGeometry y="30" width="200" height="20" as="geometry"/>
                </mxCell>
                <mxCell id="client-nazwa" value="nazwa_firmy" style="text;strokeColor=none;fillColor=none;align=left;verticalAlign=middle;spacingLeft=4;spacingRight=4;overflow=hidden;rotatable=0;points=[[0,0.5],[1,0.5]];portConstraint=eastwest;whiteSpace=wrap;html=1;" parent="client" vertex="1">
                    <mxGeometry y="50" width="200" height="20" as="geometry"/>
                </mxCell>
                <mxCell id="client-nip" value="nip" style="text;strokeColor=none;fillColor=none;align=left;verticalAlign=middle;spacingLeft=4;spacingRight=4;overflow=hidden;rotatable=0;points=[[0,0.5],[1,0.5]];portConstraint=eastwest;whiteSpace=wrap;html=1;" parent="client" vertex="1">
                    <mxGeometry y="70" width="200" height="20" as="geometry"/>
                </mxCell>
                <mxCell id="client-email" value="mail_firmowy" style="text;strokeColor=none;fillColor=none;align=left;verticalAlign=middle;spacingLeft=4;spacingRight=4;overflow=hidden;rotatable=0;points=[[0,0.5],[1,0.5]];portConstraint=eastwest;whiteSpace=wrap;html=1;" parent="client" vertex="1">
                    <mxGeometry y="90" width="200" height="20" as="geometry"/>
                </mxCell>
                <mxCell id="client-status" value="status (enum)" style="text;strokeColor=none;fillColor=none;align=left;verticalAlign=middle;spacingLeft=4;spacingRight=4;overflow=hidden;rotatable=0;points=[[0,0.5],[1,0.5]];portConstraint=eastwest;whiteSpace=wrap;html=1;fontColor=#d79b00;" parent="client" vertex="1">
                    <mxGeometry y="110" width="200" height="20" as="geometry"/>
                </mxCell>
                <mxCell id="client-segment" value="segment (enum)" style="text;strokeColor=none;fillColor=none;align=left;verticalAlign=middle;spacingLeft=4;spacingRight=4;overflow=hidden;rotatable=0;points=[[0,0.5],[1,0.5]];portConstraint=eastwest;whiteSpace=wrap;html=1;fontColor=#d79b00;" parent="client" vertex="1">
                    <mxGeometry y="130" width="200" height="20" as="geometry"/>
                </mxCell>
                <mxCell id="client-contacts" value="contacts (json)" style="text;strokeColor=none;fillColor=none;align=left;verticalAlign=middle;spacingLeft=4;spacingRight=4;overflow=hidden;rotatable=0;points=[[0,0.5],[1,0.5]];portConstraint=eastwest;whiteSpace=wrap;html=1;" parent="client" vertex="1">
                    <mxGeometry y="150" width="200" height="20" as="geometry"/>
                </mxCell>
                <mxCell id="client-website" value="website" style="text;strokeColor=none;fillColor=none;align=left;verticalAlign=middle;spacingLeft=4;spacingRight=4;overflow=hidden;rotatable=0;points=[[0,0.5],[1,0.5]];portConstraint=eastwest;whiteSpace=wrap;html=1;" parent="client" vertex="1">
                    <mxGeometry y="170" width="200" height="20" as="geometry"/>
                </mxCell>
                <mxCell id="client-logo" value="logotyp" style="text;strokeColor=none;fillColor=none;align=left;verticalAlign=middle;spacingLeft=4;spacingRight=4;overflow=hidden;rotatable=0;points=[[0,0.5],[1,0.5]];portConstraint=eastwest;whiteSpace=wrap;html=1;" parent="client" vertex="1">
                    <mxGeometry y="190" width="200" height="20" as="geometry"/>
                </mxCell>
                <mxCell id="client-created" value="created_at" style="text;strokeColor=none;fillColor=none;align=left;verticalAlign=middle;spacingLeft=4;spacingRight=4;overflow=hidden;rotatable=0;points=[[0,0.5],[1,0.5]];portConstraint=eastwest;whiteSpace=wrap;html=1;" parent="client" vertex="1">
                    <mxGeometry y="210" width="200" height="20" as="geometry"/>
                </mxCell>
                <mxCell id="contact_person" value="CONTACT_PERSON" style="swimlane;fontStyle=1;align=center;verticalAlign=top;childLayout=stackLayout;horizontal=1;startSize=30;horizontalStack=0;resizeParent=1;resizeLast=0;collapsible=1;marginBottom=0;whiteSpace=wrap;html=1;fillColor=#d5e8d4;strokeColor=#82b366;" parent="1" vertex="1">
                    <mxGeometry x="750" y="420" width="200" height="200" as="geometry"/>
                </mxCell>
                <mxCell id="contact_person-id" value="id (PK)" style="text;strokeColor=none;fillColor=none;align=left;verticalAlign=middle;spacingLeft=4;spacingRight=4;overflow=hidden;rotatable=0;points=[[0,0.5],[1,0.5]];portConstraint=eastwest;whiteSpace=wrap;html=1;fontColor=#d79b00;" parent="contact_person" vertex="1">
                    <mxGeometry y="30" width="200" height="20" as="geometry"/>
                </mxCell>
                <mxCell id="contact_person-client_id" value="client_id (FK)" style="text;strokeColor=none;fillColor=none;align=left;verticalAlign=middle;spacingLeft=4;spacingRight=4;overflow=hidden;rotatable=0;points=[[0,0.5],[1,0.5]];portConstraint=eastwest;whiteSpace=wrap;html=1;fontColor=#d79b00;" parent="contact_person" vertex="1">
                    <mxGeometry y="50" width="200" height="20" as="geometry"/>
                </mxCell>
                <mxCell id="contact_person-imie" value="imie" style="text;strokeColor=none;fillColor=none;align=left;verticalAlign=middle;spacingLeft=4;spacingRight=4;overflow=hidden;rotatable=0;points=[[0,0.5],[1,0.5]];portConstraint=eastwest;whiteSpace=wrap;html=1;" parent="contact_person" vertex="1">
                    <mxGeometry y="70" width="200" height="20" as="geometry"/>
                </mxCell>
                <mxCell id="contact_person-nazwisko" value="nazwisko" style="text;strokeColor=none;fillColor=none;align=left;verticalAlign=middle;spacingLeft=4;spacingRight=4;overflow=hidden;rotatable=0;points=[[0,0.5],[1,0.5]];portConstraint=eastwest;whiteSpace=wrap;html=1;" parent="contact_person" vertex="1">
                    <mxGeometry y="90" width="200" height="20" as="geometry"/>
                </mxCell>
                <mxCell id="contact_person-email" value="adres_email" style="text;strokeColor=none;fillColor=none;align=left;verticalAlign=middle;spacingLeft=4;spacingRight=4;overflow=hidden;rotatable=0;points=[[0,0.5],[1,0.5]];portConstraint=eastwest;whiteSpace=wrap;html=1;" parent="contact_person" vertex="1">
                    <mxGeometry y="110" width="200" height="20" as="geometry"/>
                </mxCell>
                <mxCell id="contact_person-telefon" value="telefon_kontaktowy" style="text;strokeColor=none;fillColor=none;align=left;verticalAlign=middle;spacingLeft=4;spacingRight=4;overflow=hidden;rotatable=0;points=[[0,0.5],[1,0.5]];portConstraint=eastwest;whiteSpace=wrap;html=1;" parent="contact_person" vertex="1">
                    <mxGeometry y="130" width="200" height="20" as="geometry"/>
                </mxCell>
                <mxCell id="contact_person-opis" value="opis" style="text;strokeColor=none;fillColor=none;align=left;verticalAlign=middle;spacingLeft=4;spacingRight=4;overflow=hidden;rotatable=0;points=[[0,0.5],[1,0.5]];portConstraint=eastwest;whiteSpace=wrap;html=1;" parent="contact_person" vertex="1">
                    <mxGeometry y="150" width="200" height="20" as="geometry"/>
                </mxCell>
                <mxCell id="tile" value="TILE" style="swimlane;fontStyle=1;align=center;verticalAlign=top;childLayout=stackLayout;horizontal=1;startSize=30;horizontalStack=0;resizeParent=1;resizeLast=0;collapsible=1;marginBottom=0;whiteSpace=wrap;html=1;fillColor=#fff2cc;strokeColor=#d6b656;" parent="1" vertex="1">
                    <mxGeometry x="100" y="550" width="200" height="300" as="geometry"/>
                </mxCell>
                <mxCell id="tile-id" value="id (PK)" style="text;strokeColor=none;fillColor=none;align=left;verticalAlign=middle;spacingLeft=4;spacingRight=4;overflow=hidden;rotatable=0;points=[[0,0.5],[1,0.5]];portConstraint=eastwest;whiteSpace=wrap;html=1;fontColor=#d79b00;" parent="tile" vertex="1">
                    <mxGeometry y="30" width="200" height="20" as="geometry"/>
                </mxCell>
                <mxCell id="tile-projectId" value="project_id (FK)" style="text;strokeColor=none;fillColor=none;align=left;verticalAlign=middle;spacingLeft=4;spacingRight=4;overflow=hidden;rotatable=0;points=[[0,0.5],[1,0.5]];portConstraint=eastwest;whiteSpace=wrap;html=1;fontColor=#d79b00;" parent="tile" vertex="1">
                    <mxGeometry y="50" width="200" height="20" as="geometry"/>
                </mxCell>
                <mxCell id="tile-name" value="name" style="text;strokeColor=none;fillColor=none;align=left;verticalAlign=middle;spacingLeft=4;spacingRight=4;overflow=hidden;rotatable=0;points=[[0,0.5],[1,0.5]];portConstraint=eastwest;whiteSpace=wrap;html=1;" parent="tile" vertex="1">
                    <mxGeometry y="70" width="200" height="20" as="geometry"/>
                </mxCell>
                <mxCell id="tile-status" value="status (enum)" style="text;strokeColor=none;fillColor=none;align=left;verticalAlign=middle;spacingLeft=4;spacingRight=4;overflow=hidden;rotatable=0;points=[[0,0.5],[1,0.5]];portConstraint=eastwest;whiteSpace=wrap;html=1;fontColor=#d79b00;" parent="tile" vertex="1">
                    <mxGeometry y="90" width="200" height="20" as="geometry"/>
                </mxCell>
                <mxCell id="tile-priority" value="priority (enum)" style="text;strokeColor=none;fillColor=none;align=left;verticalAlign=middle;spacingLeft=4;spacingRight=4;overflow=hidden;rotatable=0;points=[[0,0.5],[1,0.5]];portConstraint=eastwest;whiteSpace=wrap;html=1;fontColor=#d79b00;" parent="tile" vertex="1">
                    <mxGeometry y="110" width="200" height="20" as="geometry"/>
                </mxCell>
                <mxCell id="tile-deadline" value="termin" style="text;strokeColor=none;fillColor=none;align=left;verticalAlign=middle;spacingLeft=4;spacingRight=4;overflow=hidden;rotatable=0;points=[[0,0.5],[1,0.5]];portConstraint=eastwest;whiteSpace=wrap;html=1;" parent="tile" vertex="1">
                    <mxGeometry y="130" width="200" height="20" as="geometry"/>
                </mxCell>
                <mxCell id="tile-cost" value="estimated_cost" style="text;strokeColor=none;fillColor=none;align=left;verticalAlign=middle;spacingLeft=4;spacingRight=4;overflow=hidden;rotatable=0;points=[[0,0.5],[1,0.5]];portConstraint=eastwest;whiteSpace=wrap;html=1;" parent="tile" vertex="1">
                    <mxGeometry y="150" width="200" height="20" as="geometry"/>
                </mxCell>
                <mxCell id="tile-designer" value="przypisany_projektant" style="text;strokeColor=none;fillColor=none;align=left;verticalAlign=middle;spacingLeft=4;spacingRight=4;overflow=hidden;rotatable=0;points=[[0,0.5],[1,0.5]];portConstraint=eastwest;whiteSpace=wrap;html=1;" parent="tile" vertex="1">
                    <mxGeometry y="170" width="200" height="20" as="geometry"/>
                </mxCell>
                <mxCell id="tile-dependencies" value="dependencies (json)" style="text;strokeColor=none;fillColor=none;align=left;verticalAlign=middle;spacingLeft=4;spacingRight=4;overflow=hidden;rotatable=0;points=[[0,0.5],[1,0.5]];portConstraint=eastwest;whiteSpace=wrap;html=1;" parent="tile" vertex="1">
                    <mxGeometry y="190" width="200" height="20" as="geometry"/>
                </mxCell>
                <mxCell id="tile-geometry" value="geometry_data (json)" style="text;strokeColor=none;fillColor=none;align=left;verticalAlign=middle;spacingLeft=4;spacingRight=4;overflow=hidden;rotatable=0;points=[[0,0.5],[1,0.5]];portConstraint=eastwest;whiteSpace=wrap;html=1;" parent="tile" vertex="1">
                    <mxGeometry y="210" width="200" height="20" as="geometry"/>
                </mxCell>
                <mxCell id="tile-created" value="created_at" style="text;strokeColor=none;fillColor=none;align=left;verticalAlign=middle;spacingLeft=4;spacingRight=4;overflow=hidden;rotatable=0;points=[[0,0.5],[1,0.5]];portConstraint=eastwest;whiteSpace=wrap;html=1;" parent="tile" vertex="1">
                    <mxGeometry y="230" width="200" height="20" as="geometry"/>
                </mxCell>
                <mxCell id="bom_item" value="BOM_ITEM" style="swimlane;fontStyle=1;align=center;verticalAlign=top;childLayout=stackLayout;horizontal=1;startSize=30;horizontalStack=0;resizeParent=1;resizeLast=0;collapsible=1;marginBottom=0;whiteSpace=wrap;html=1;fillColor=#fff2cc;strokeColor=#d6b656;" parent="1" vertex="1">
                    <mxGeometry x="350" y="550" width="200" height="200" as="geometry"/>
                </mxCell>
                <mxCell id="bom_item-id" value="id (PK)" style="text;strokeColor=none;fillColor=none;align=left;verticalAlign=middle;spacingLeft=4;spacingRight=4;overflow=hidden;rotatable=0;points=[[0,0.5],[1,0.5]];portConstraint=eastwest;whiteSpace=wrap;html=1;fontColor=#d79b00;" parent="bom_item" vertex="1">
                    <mxGeometry y="30" width="200" height="20" as="geometry"/>
                </mxCell>
                <mxCell id="bom_item-tile_id" value="tile_id (FK)" style="text;strokeColor=none;fillColor=none;align=left;verticalAlign=middle;spacingLeft=4;spacingRight=4;overflow=hidden;rotatable=0;points=[[0,0.5],[1,0.5]];portConstraint=eastwest;whiteSpace=wrap;html=1;fontColor=#d79b00;" parent="bom_item" vertex="1">
                    <mxGeometry y="50" width="200" height="20" as="geometry"/>
                </mxCell>
                <mxCell id="bom_item-type" value="type (enum)" style="text;strokeColor=none;fillColor=none;align=left;verticalAlign=middle;spacingLeft=4;spacingRight=4;overflow=hidden;rotatable=0;points=[[0,0.5],[1,0.5]];portConstraint=eastwest;whiteSpace=wrap;html=1;fontColor=#d79b00;" parent="bom_item" vertex="1">
                    <mxGeometry y="70" width="200" height="20" as="geometry"/>
                </mxCell>
                <mxCell id="bom_item-name" value="name" style="text;strokeColor=none;fillColor=none;align=left;verticalAlign=middle;spacingLeft=4;spacingRight=4;overflow=hidden;rotatable=0;points=[[0,0.5],[1,0.5]];portConstraint=eastwest;whiteSpace=wrap;html=1;" parent="bom_item" vertex="1">
                    <mxGeometry y="90" width="200" height="20" as="geometry"/>
                </mxCell>
                <mxCell id="bom_item-quantity" value="quantity" style="text;strokeColor=none;fillColor=none;align=left;verticalAlign=middle;spacingLeft=4;spacingRight=4;overflow=hidden;rotatable=0;points=[[0,0.5],[1,0.5]];portConstraint=eastwest;whiteSpace=wrap;html=1;" parent="bom_item" vertex="1">
                    <mxGeometry y="110" width="200" height="20" as="geometry"/>
                </mxCell>
                <mxCell id="bom_item-unit" value="unit" style="text;strokeColor=none;fillColor=none;align=left;verticalAlign=middle;spacingLeft=4;spacingRight=4;overflow=hidden;rotatable=0;points=[[0,0.5],[1,0.5]];portConstraint=eastwest;whiteSpace=wrap;html=1;" parent="bom_item" vertex="1">
                    <mxGeometry y="130" width="200" height="20" as="geometry"/>
                </mxCell>
                <mxCell id="bom_item-supplier" value="supplier" style="text;strokeColor=none;fillColor=none;align=left;verticalAlign=middle;spacingLeft=4;spacingRight=4;overflow=hidden;rotatable=0;points=[[0,0.5],[1,0.5]];portConstraint=eastwest;whiteSpace=wrap;html=1;" parent="bom_item" vertex="1">
                    <mxGeometry y="150" width="200" height="20" as="geometry"/>
                </mxCell>
                <mxCell id="bom_item-status" value="status (enum)" style="text;strokeColor=none;fillColor=none;align=left;verticalAlign=middle;spacingLeft=4;spacingRight=4;overflow=hidden;rotatable=0;points=[[0,0.5],[1,0.5]];portConstraint=eastwest;whiteSpace=wrap;html=1;fontColor=#d79b00;" parent="bom_item" vertex="1">
                    <mxGeometry y="170" width="200" height="20" as="geometry"/>
                </mxCell>
                <mxCell id="tile_material" value="TILE_MATERIAL" style="swimlane;fontStyle=1;align=center;verticalAlign=top;childLayout=stackLayout;horizontal=1;startSize=30;horizontalStack=0;resizeParent=1;resizeLast=0;collapsible=1;marginBottom=0;whiteSpace=wrap;html=1;fillColor=#fff2cc;strokeColor=#d6b656;" parent="1" vertex="1">
                    <mxGeometry x="350" y="800" width="200" height="200" as="geometry"/>
                </mxCell>
                <mxCell id="tile_material-id" value="id (PK)" style="text;strokeColor=none;fillColor=none;align=left;verticalAlign=middle;spacingLeft=4;spacingRight=4;overflow=hidden;rotatable=0;points=[[0,0.5],[1,0.5]];portConstraint=eastwest;whiteSpace=wrap;html=1;fontColor=#d79b00;" parent="tile_material" vertex="1">
                    <mxGeometry y="30" width="200" height="20" as="geometry"/>
                </mxCell>
                <mxCell id="tile_material-tile_id" value="tile_id (FK)" style="text;strokeColor=none;fillColor=none;align=left;verticalAlign=middle;spacingLeft=4;spacingRight=4;overflow=hidden;rotatable=0;points=[[0,0.5],[1,0.5]];portConstraint=eastwest;whiteSpace=wrap;html=1;fontColor=#d79b00;" parent="tile_material" vertex="1">
                    <mxGeometry y="50" width="200" height="20" as="geometry"/>
                </mxCell>
                <mxCell id="tile_material-material_id" value="material_id (FK)" style="text;strokeColor=none;fillColor=none;align=left;verticalAlign=middle;spacingLeft=4;spacingRight=4;overflow=hidden;rotatable=0;points=[[0,0.5],[1,0.5]];portConstraint=eastwest;whiteSpace=wrap;html=1;fontColor=#d79b00;" parent="tile_material" vertex="1">
                    <mxGeometry y="70" width="200" height="20" as="geometry"/>
                </mxCell>
                <mxCell id="tile_material-speckle_object_id" value="speckle_object_id" style="text;strokeColor=none;fillColor=none;align=left;verticalAlign=middle;spacingLeft=4;spacingRight=4;overflow=hidden;rotatable=0;points=[[0,0.5],[1,0.5]];portConstraint=eastwest;whiteSpace=wrap;html=1;" parent="tile_material" vertex="1">
                    <mxGeometry y="90" width="200" height="20" as="geometry"/>
                </mxCell>
                <mxCell id="tile_material-volume" value="volume_m3" style="text;strokeColor=none;fillColor=none;align=left;verticalAlign=middle;spacingLeft=4;spacingRight=4;overflow=hidden;rotatable=0;points=[[0,0.5],[1,0.5]];portConstraint=eastwest;whiteSpace=wrap;html=1;" parent="tile_material" vertex="1">
                    <mxGeometry y="110" width="200" height="20" as="geometry"/>
                </mxCell>
                <mxCell id="tile_material-area" value="area_m2" style="text;strokeColor=none;fillColor=none;align=left;verticalAlign=middle;spacingLeft=4;spacingRight=4;overflow=hidden;rotatable=0;points=[[0,0.5],[1,0.5]];portConstraint=eastwest;whiteSpace=wrap;html=1;" parent="tile_material" vertex="1">
                    <mxGeometry y="130" width="200" height="20" as="geometry"/>
                </mxCell>
                <mxCell id="tile_material-plates" value="estimated_plates" style="text;strokeColor=none;fillColor=none;align=left;verticalAlign=middle;spacingLeft=4;spacingRight=4;overflow=hidden;rotatable=0;points=[[0,0.5],[1,0.5]];portConstraint=eastwest;whiteSpace=wrap;html=1;" parent="tile_material" vertex="1">
                    <mxGeometry y="150" width="200" height="20" as="geometry"/>
                </mxCell>
                <mxCell id="tile_material-waste" value="waste_percentage" style="text;strokeColor=none;fillColor=none;align=left;verticalAlign=middle;spacingLeft=4;spacingRight=4;overflow=hidden;rotatable=0;points=[[0,0.5],[1,0.5]];portConstraint=eastwest;whiteSpace=wrap;html=1;" parent="tile_material" vertex="1">
                    <mxGeometry y="170" width="200" height="20" as="geometry"/>
                </mxCell>
                <mxCell id="material" value="MATERIAL" style="swimlane;fontStyle=1;align=center;verticalAlign=top;childLayout=stackLayout;horizontal=1;startSize=30;horizontalStack=0;resizeParent=1;resizeLast=0;collapsible=1;marginBottom=0;whiteSpace=wrap;html=1;fillColor=#f8cecc;strokeColor=#b85450;" parent="1" vertex="1">
                    <mxGeometry x="700" y="100" width="200" height="300" as="geometry"/>
                </mxCell>
                <mxCell id="material-id" value="id (PK)" style="text;strokeColor=none;fillColor=none;align=left;verticalAlign=middle;spacingLeft=4;spacingRight=4;overflow=hidden;rotatable=0;points=[[0,0.5],[1,0.5]];portConstraint=eastwest;whiteSpace=wrap;html=1;fontColor=#d79b00;" parent="material" vertex="1">
                    <mxGeometry y="30" width="200" height="20" as="geometry"/>
                </mxCell>
                <mxCell id="material-code" value="code" style="text;strokeColor=none;fillColor=none;align=left;verticalAlign=middle;spacingLeft=4;spacingRight=4;overflow=hidden;rotatable=0;points=[[0,0.5],[1,0.5]];portConstraint=eastwest;whiteSpace=wrap;html=1;" parent="material" vertex="1">
                    <mxGeometry y="50" width="200" height="20" as="geometry"/>
                </mxCell>
                <mxCell id="material-name" value="name" style="text;strokeColor=none;fillColor=none;align=left;verticalAlign=middle;spacingLeft=4;spacingRight=4;overflow=hidden;rotatable=0;points=[[0,0.5],[1,0.5]];portConstraint=eastwest;whiteSpace=wrap;html=1;" parent="material" vertex="1">
                    <mxGeometry y="70" width="200" height="20" as="geometry"/>
                </mxCell>
                <mxCell id="material-category" value="category (json)" style="text;strokeColor=none;fillColor=none;align=left;verticalAlign=middle;spacingLeft=4;spacingRight=4;overflow=hidden;rotatable=0;points=[[0,0.5],[1,0.5]];portConstraint=eastwest;whiteSpace=wrap;html=1;" parent="material" vertex="1">
                    <mxGeometry y="90" width="200" height="20" as="geometry"/>
                </mxCell>
                <mxCell id="material-thickness" value="thickness" style="text;strokeColor=none;fillColor=none;align=left;verticalAlign=middle;spacingLeft=4;spacingRight=4;overflow=hidden;rotatable=0;points=[[0,0.5],[1,0.5]];portConstraint=eastwest;whiteSpace=wrap;html=1;" parent="material" vertex="1">
                    <mxGeometry y="110" width="200" height="20" as="geometry"/>
                </mxCell>
                <mxCell id="material-stock" value="stock" style="text;strokeColor=none;fillColor=none;align=left;verticalAlign=middle;spacingLeft=4;spacingRight=4;overflow=hidden;rotatable=0;points=[[0,0.5],[1,0.5]];portConstraint=eastwest;whiteSpace=wrap;html=1;" parent="material" vertex="1">
                    <mxGeometry y="130" width="200" height="20" as="geometry"/>
                </mxCell>
                <mxCell id="material-price" value="price" style="text;strokeColor=none;fillColor=none;align=left;verticalAlign=middle;spacingLeft=4;spacingRight=4;overflow=hidden;rotatable=0;points=[[0,0.5],[1,0.5]];portConstraint=eastwest;whiteSpace=wrap;html=1;" parent="material" vertex="1">
                    <mxGeometry y="150" width="200" height="20" as="geometry"/>
                </mxCell>
                <mxCell id="material-supplier" value="supplier" style="text;strokeColor=none;fillColor=none;align=left;verticalAlign=middle;spacingLeft=4;spacingRight=4;overflow=hidden;rotatable=0;points=[[0,0.5],[1,0.5]];portConstraint=eastwest;whiteSpace=wrap;html=1;" parent="material" vertex="1">
                    <mxGeometry y="170" width="200" height="20" as="geometry"/>
                </mxCell>
                <mxCell id="material-location" value="location" style="text;strokeColor=none;fillColor=none;align=left;verticalAlign=middle;spacingLeft=4;spacingRight=4;overflow=hidden;rotatable=0;points=[[0,0.5],[1,0.5]];portConstraint=eastwest;whiteSpace=wrap;html=1;" parent="material" vertex="1">
                    <mxGeometry y="190" width="200" height="20" as="geometry"/>
                </mxCell>
                <mxCell id="material-abc" value="abcClass (enum)" style="text;strokeColor=none;fillColor=none;align=left;verticalAlign=middle;spacingLeft=4;spacingRight=4;overflow=hidden;rotatable=0;points=[[0,0.5],[1,0.5]];portConstraint=eastwest;whiteSpace=wrap;html=1;fontColor=#d79b00;" parent="material" vertex="1">
                    <mxGeometry y="210" width="200" height="20" as="geometry"/>
                </mxCell>
                <mxCell id="material-properties" value="properties (json)" style="text;strokeColor=none;fillColor=none;align=left;verticalAlign=middle;spacingLeft=4;spacingRight=4;overflow=hidden;rotatable=0;points=[[0,0.5],[1,0.5]];portConstraint=eastwest;whiteSpace=wrap;html=1;" parent="material" vertex="1">
                    <mxGeometry y="230" width="200" height="20" as="geometry"/>
                </mxCell>
                <mxCell id="user" value="USER" style="swimlane;fontStyle=1;align=center;verticalAlign=top;childLayout=stackLayout;horizontal=1;startSize=30;horizontalStack=0;resizeParent=1;resizeLast=0;collapsible=1;marginBottom=0;whiteSpace=wrap;html=1;fillColor=#e1d5e7;strokeColor=#9673a6;" parent="1" vertex="1">
                    <mxGeometry x="830" y="800" width="200" height="200" as="geometry"/>
                </mxCell>
                <mxCell id="user-id" value="id (PK)" style="text;strokeColor=none;fillColor=none;align=left;verticalAlign=middle;spacingLeft=4;spacingRight=4;overflow=hidden;rotatable=0;points=[[0,0.5],[1,0.5]];portConstraint=eastwest;whiteSpace=wrap;html=1;fontColor=#d79b00;" parent="user" vertex="1">
                    <mxGeometry y="30" width="200" height="20" as="geometry"/>
                </mxCell>
                <mxCell id="user-name" value="imie_nazwisko" style="text;strokeColor=none;fillColor=none;align=left;verticalAlign=middle;spacingLeft=4;spacingRight=4;overflow=hidden;rotatable=0;points=[[0,0.5],[1,0.5]];portConstraint=eastwest;whiteSpace=wrap;html=1;" parent="user" vertex="1">
                    <mxGeometry y="50" width="200" height="20" as="geometry"/>
                </mxCell>
                <mxCell id="user-email" value="email" style="text;strokeColor=none;fillColor=none;align=left;verticalAlign=middle;spacingLeft=4;spacingRight=4;overflow=hidden;rotatable=0;points=[[0,0.5],[1,0.5]];portConstraint=eastwest;whiteSpace=wrap;html=1;" parent="user" vertex="1">
                    <mxGeometry y="70" width="200" height="20" as="geometry"/>
                </mxCell>
                <mxCell id="user-role" value="rola (enum)" style="text;strokeColor=none;fillColor=none;align=left;verticalAlign=middle;spacingLeft=4;spacingRight=4;overflow=hidden;rotatable=0;points=[[0,0.5],[1,0.5]];portConstraint=eastwest;whiteSpace=wrap;html=1;fontColor=#d79b00;" parent="user" vertex="1">
                    <mxGeometry y="90" width="200" height="20" as="geometry"/>
                </mxCell>
                <mxCell id="user-permissions" value="uprawnienia (json)" style="text;strokeColor=none;fillColor=none;align=left;verticalAlign=middle;spacingLeft=4;spacingRight=4;overflow=hidden;rotatable=0;points=[[0,0.5],[1,0.5]];portConstraint=eastwest;whiteSpace=wrap;html=1;" parent="user" vertex="1">
                    <mxGeometry y="110" width="200" height="20" as="geometry"/>
                </mxCell>
                <mxCell id="user-avatar" value="avatar" style="text;strokeColor=none;fillColor=none;align=left;verticalAlign=middle;spacingLeft=4;spacingRight=4;overflow=hidden;rotatable=0;points=[[0,0.5],[1,0.5]];portConstraint=eastwest;whiteSpace=wrap;html=1;" parent="user" vertex="1">
                    <mxGeometry y="130" width="200" height="20" as="geometry"/>
                </mxCell>
                <mxCell id="user-active" value="isActive" style="text;strokeColor=none;fillColor=none;align=left;verticalAlign=middle;spacingLeft=4;spacingRight=4;overflow=hidden;rotatable=0;points=[[0,0.5],[1,0.5]];portConstraint=eastwest;whiteSpace=wrap;html=1;" parent="user" vertex="1">
                    <mxGeometry y="150" width="200" height="20" as="geometry"/>
                </mxCell>
                <mxCell id="subcontractor" value="SUBCONTRACTOR" style="swimlane;fontStyle=1;align=center;verticalAlign=top;childLayout=stackLayout;horizontal=1;startSize=30;horizontalStack=0;resizeParent=1;resizeLast=0;collapsible=1;marginBottom=0;whiteSpace=wrap;html=1;fillColor=#ffe6cc;strokeColor=#d79b00;" parent="1" vertex="1">
                    <mxGeometry x="1000" y="100" width="200" height="300" as="geometry"/>
                </mxCell>
                <mxCell id="subcontractor-id" value="id (PK)" style="text;strokeColor=none;fillColor=none;align=left;verticalAlign=middle;spacingLeft=4;spacingRight=4;overflow=hidden;rotatable=0;points=[[0,0.5],[1,0.5]];portConstraint=eastwest;whiteSpace=wrap;html=1;fontColor=#d79b00;" parent="subcontractor" vertex="1">
                    <mxGeometry y="30" width="200" height="20" as="geometry"/>
                </mxCell>
                <mxCell id="subcontractor-name" value="name" style="text;strokeColor=none;fillColor=none;align=left;verticalAlign=middle;spacingLeft=4;spacingRight=4;overflow=hidden;rotatable=0;points=[[0,0.5],[1,0.5]];portConstraint=eastwest;whiteSpace=wrap;html=1;" parent="subcontractor" vertex="1">
                    <mxGeometry y="50" width="200" height="20" as="geometry"/>
                </mxCell>
                <mxCell id="subcontractor-category" value="category (enum)" style="text;strokeColor=none;fillColor=none;align=left;verticalAlign=middle;spacingLeft=4;spacingRight=4;overflow=hidden;rotatable=0;points=[[0,0.5],[1,0.5]];portConstraint=eastwest;whiteSpace=wrap;html=1;fontColor=#d79b00;" parent="subcontractor" vertex="1">
                    <mxGeometry y="70" width="200" height="20" as="geometry"/>
                </mxCell>
                <mxCell id="subcontractor-contact" value="contactPerson" style="text;strokeColor=none;fillColor=none;align=left;verticalAlign=middle;spacingLeft=4;spacingRight=4;overflow=hidden;rotatable=0;points=[[0,0.5],[1,0.5]];portConstraint=eastwest;whiteSpace=wrap;html=1;" parent="subcontractor" vertex="1">
                    <mxGeometry y="90" width="200" height="20" as="geometry"/>
                </mxCell>
                <mxCell id="subcontractor-email" value="email" style="text;strokeColor=none;fillColor=none;align=left;verticalAlign=middle;spacingLeft=4;spacingRight=4;overflow=hidden;rotatable=0;points=[[0,0.5],[1,0.5]];portConstraint=eastwest;whiteSpace=wrap;html=1;" parent="subcontractor" vertex="1">
                    <mxGeometry y="110" width="200" height="20" as="geometry"/>
                </mxCell>
                <mxCell id="subcontractor-phone" value="phone" style="text;strokeColor=none;fillColor=none;align=left;verticalAlign=middle;spacingLeft=4;spacingRight=4;overflow=hidden;rotatable=0;points=[[0,0.5],[1,0.5]];portConstraint=eastwest;whiteSpace=wrap;html=1;" parent="subcontractor" vertex="1">
                    <mxGeometry y="130" width="200" height="20" as="geometry"/>
                </mxCell>
                <mxCell id="subcontractor-rating" value="rating" style="text;strokeColor=none;fillColor=none;align=left;verticalAlign=middle;spacingLeft=4;spacingRight=4;overflow=hidden;rotatable=0;points=[[0,0.5],[1,0.5]];portConstraint=eastwest;whiteSpace=wrap;html=1;" parent="subcontractor" vertex="1">
                    <mxGeometry y="150" width="200" height="20" as="geometry"/>
                </mxCell>
                <mxCell id="subcontractor-status" value="status (enum)" style="text;strokeColor=none;fillColor=none;align=left;verticalAlign=middle;spacingLeft=4;spacingRight=4;overflow=hidden;rotatable=0;points=[[0,0.5],[1,0.5]];portConstraint=eastwest;whiteSpace=wrap;html=1;fontColor=#d79b00;" parent="subcontractor" vertex="1">
                    <mxGeometry y="170" width="200" height="20" as="geometry"/>
                </mxCell>
                <mxCell id="subcontractor-specialties" value="specialties (json)" style="text;strokeColor=none;fillColor=none;align=left;verticalAlign=middle;spacingLeft=4;spacingRight=4;overflow=hidden;rotatable=0;points=[[0,0.5],[1,0.5]];portConstraint=eastwest;whiteSpace=wrap;html=1;" parent="subcontractor" vertex="1">
                    <mxGeometry y="190" width="200" height="20" as="geometry"/>
                </mxCell>
                <mxCell id="subcontractor-capacity" value="capacity (json)" style="text;strokeColor=none;fillColor=none;align=left;verticalAlign=middle;spacingLeft=4;spacingRight=4;overflow=hidden;rotatable=0;points=[[0,0.5],[1,0.5]];portConstraint=eastwest;whiteSpace=wrap;html=1;" parent="subcontractor" vertex="1">
                    <mxGeometry y="210" width="200" height="20" as="geometry"/>
                </mxCell>
                <mxCell id="subcontractor-pricing" value="pricing (json)" style="text;strokeColor=none;fillColor=none;align=left;verticalAlign=middle;spacingLeft=4;spacingRight=4;overflow=hidden;rotatable=0;points=[[0,0.5],[1,0.5]];portConstraint=eastwest;whiteSpace=wrap;html=1;" parent="subcontractor" vertex="1">
                    <mxGeometry y="230" width="200" height="20" as="geometry"/>
                </mxCell>
                <mxCell id="subcontractor-created" value="createdAt" style="text;strokeColor=none;fillColor=none;align=left;verticalAlign=middle;spacingLeft=4;spacingRight=4;overflow=hidden;rotatable=0;points=[[0,0.5],[1,0.5]];portConstraint=eastwest;whiteSpace=wrap;html=1;" parent="subcontractor" vertex="1">
                    <mxGeometry y="250" width="200" height="20" as="geometry"/>
                </mxCell>
                <mxCell id="subcontractor_order" value="SUBCONTRACTOR_ORDER" style="swimlane;fontStyle=1;align=center;verticalAlign=top;childLayout=stackLayout;horizontal=1;startSize=30;horizontalStack=0;resizeParent=1;resizeLast=0;collapsible=1;marginBottom=0;whiteSpace=wrap;html=1;fillColor=#ffe6cc;strokeColor=#d79b00;" parent="1" vertex="1">
                    <mxGeometry x="1000" y="450" width="200" height="250" as="geometry"/>
                </mxCell>
                <mxCell id="subcontractor_order-id" value="id (PK)" style="text;strokeColor=none;fillColor=none;align=left;verticalAlign=middle;spacingLeft=4;spacingRight=4;overflow=hidden;rotatable=0;points=[[0,0.5],[1,0.5]];portConstraint=eastwest;whiteSpace=wrap;html=1;fontColor=#d79b00;" parent="subcontractor_order" vertex="1">
                    <mxGeometry y="30" width="200" height="20" as="geometry"/>
                </mxCell>
                <mxCell id="subcontractor_order-subcontractorId" value="subcontractorId (FK)" style="text;strokeColor=none;fillColor=none;align=left;verticalAlign=middle;spacingLeft=4;spacingRight=4;overflow=hidden;rotatable=0;points=[[0,0.5],[1,0.5]];portConstraint=eastwest;whiteSpace=wrap;html=1;fontColor=#d79b00;" parent="subcontractor_order" vertex="1">
                    <mxGeometry y="50" width="200" height="20" as="geometry"/>
                </mxCell>
                <mxCell id="subcontractor_order-tileId" value="tileId (FK)" style="text;strokeColor=none;fillColor=none;align=left;verticalAlign=middle;spacingLeft=4;spacingRight=4;overflow=hidden;rotatable=0;points=[[0,0.5],[1,0.5]];portConstraint=eastwest;whiteSpace=wrap;html=1;fontColor=#d79b00;" parent="subcontractor_order" vertex="1">
                    <mxGeometry y="70" width="200" height="20" as="geometry"/>
                </mxCell>
                <mxCell id="subcontractor_order-projectId" value="projectId (FK)" style="text;strokeColor=none;fillColor=none;align=left;verticalAlign=middle;spacingLeft=4;spacingRight=4;overflow=hidden;rotatable=0;points=[[0,0.5],[1,0.5]];portConstraint=eastwest;whiteSpace=wrap;html=1;fontColor=#d79b00;" parent="subcontractor_order" vertex="1">
                    <mxGeometry y="90" width="200" height="20" as="geometry"/>
                </mxCell>
                <mxCell id="subcontractor_order-title" value="title" style="text;strokeColor=none;fillColor=none;align=left;verticalAlign=middle;spacingLeft=4;spacingRight=4;overflow=hidden;rotatable=0;points=[[0,0.5],[1,0.5]];portConstraint=eastwest;whiteSpace=wrap;html=1;" parent="subcontractor_order" vertex="1">
                    <mxGeometry y="110" width="200" height="20" as="geometry"/>
                </mxCell>
                <mxCell id="subcontractor_order-status" value="status (enum)" style="text;strokeColor=none;fillColor=none;align=left;verticalAlign=middle;spacingLeft=4;spacingRight=4;overflow=hidden;rotatable=0;points=[[0,0.5],[1,0.5]];portConstraint=eastwest;whiteSpace=wrap;html=1;fontColor=#d79b00;" parent="subcontractor_order" vertex="1">
                    <mxGeometry y="130" width="200" height="20" as="geometry"/>
                </mxCell>
                <mxCell id="subcontractor_order-cost" value="cost" style="text;strokeColor=none;fillColor=none;align=left;verticalAlign=middle;spacingLeft=4;spacingRight=4;overflow=hidden;rotatable=0;points=[[0,0.5],[1,0.5]];portConstraint=eastwest;whiteSpace=wrap;html=1;" parent="subcontractor_order" vertex="1">
                    <mxGeometry y="150" width="200" height="20" as="geometry"/>
                </mxCell>
                <mxCell id="subcontractor_order-quantity" value="quantity" style="text;strokeColor=none;fillColor=none;align=left;verticalAlign=middle;spacingLeft=4;spacingRight=4;overflow=hidden;rotatable=0;points=[[0,0.5],[1,0.5]];portConstraint=eastwest;whiteSpace=wrap;html=1;" parent="subcontractor_order" vertex="1">
                    <mxGeometry y="170" width="200" height="20" as="geometry"/>
                </mxCell>
                <mxCell id="subcontractor_order-progress" value="progress" style="text;strokeColor=none;fillColor=none;align=left;verticalAlign=middle;spacingLeft=4;spacingRight=4;overflow=hidden;rotatable=0;points=[[0,0.5],[1,0.5]];portConstraint=eastwest;whiteSpace=wrap;html=1;" parent="subcontractor_order" vertex="1">
                    <mxGeometry y="190" width="200" height="20" as="geometry"/>
                </mxCell>
                <mxCell id="subcontractor_order-created" value="createdAt" style="text;strokeColor=none;fillColor=none;align=left;verticalAlign=middle;spacingLeft=4;spacingRight=4;overflow=hidden;rotatable=0;points=[[0,0.5],[1,0.5]];portConstraint=eastwest;whiteSpace=wrap;html=1;" parent="subcontractor_order" vertex="1">
                    <mxGeometry y="210" width="200" height="20" as="geometry"/>
                </mxCell>
                <mxCell id="rel1" value="" style="endArrow=classic;html=1;rounded=0;exitX=1;exitY=0.5;exitDx=0;exitDy=0;entryX=0;entryY=0.5;entryDx=0;entryDy=0;" parent="1" source="project" target="client" edge="1">
                    <mxGeometry width="50" height="50" relative="1" as="geometry">
                        <mxPoint x="350" y="200" as="sourcePoint"/>
                        <mxPoint x="400" y="200" as="targetPoint"/>
                    </mxGeometry>
                </mxCell>
                <mxCell id="rel1-label" value="1:N" style="edgeLabel;html=1;align=center;verticalAlign=middle;resizable=0;points=[];" parent="rel1" vertex="1" connectable="0">
                    <mxGeometry x="-0.1" y="-1" relative="1" as="geometry">
                        <mxPoint as="offset"/>
                    </mxGeometry>
                </mxCell>
                <mxCell id="rel2" value="" style="endArrow=classic;html=1;rounded=0;exitX=0.5;exitY=1;exitDx=0;exitDy=0;entryX=0.5;entryY=0;entryDx=0;entryDy=0;" parent="1" source="project" target="tile" edge="1">
                    <mxGeometry width="50" height="50" relative="1" as="geometry">
                        <mxPoint x="200" y="500" as="sourcePoint"/>
                        <mxPoint x="200" y="550" as="targetPoint"/>
                    </mxGeometry>
                </mxCell>
                <mxCell id="rel2-label" value="1:N" style="edgeLabel;html=1;align=center;verticalAlign=middle;resizable=0;points=[];" parent="rel2" vertex="1" connectable="0">
                    <mxGeometry x="-0.1" y="-1" relative="1" as="geometry">
                        <mxPoint as="offset"/>
                    </mxGeometry>
                </mxCell>
                <mxCell id="rel3" value="" style="endArrow=classic;html=1;rounded=0;exitX=1;exitY=0.5;exitDx=0;exitDy=0;entryX=0;entryY=0.5;entryDx=0;entryDy=0;" parent="1" source="tile" target="material" edge="1">
                    <mxGeometry width="50" height="50" relative="1" as="geometry">
                        <mxPoint x="350" y="700" as="sourcePoint"/>
                        <mxPoint x="700" y="250" as="targetPoint"/>
                    </mxGeometry>
                </mxCell>
                <mxCell id="rel3-label" value="M:N" style="edgeLabel;html=1;align=center;verticalAlign=middle;resizable=0;points=[];" parent="rel3" vertex="1" connectable="0">
                    <mxGeometry x="-0.1" y="-1" relative="1" as="geometry">
                        <mxPoint as="offset"/>
                    </mxGeometry>
                </mxCell>
                <mxCell id="rel4" value="" style="endArrow=classic;html=1;rounded=0;exitX=1;exitY=0.5;exitDx=0;exitDy=0;entryX=0;entryY=0.5;entryDx=0;entryDy=0;" parent="1" source="client" target="contact_person" edge="1">
                    <mxGeometry width="50" height="50" relative="1" as="geometry">
                        <mxPoint x="600" y="250" as="sourcePoint"/>
                        <mxPoint x="400" y="450" as="targetPoint"/>
                    </mxGeometry>
                </mxCell>
                <mxCell id="rel4-label" value="1:N" style="edgeLabel;html=1;align=center;verticalAlign=middle;resizable=0;points=[];" parent="rel4" vertex="1" connectable="0">
                    <mxGeometry x="-0.1" y="-1" relative="1" as="geometry">
                        <mxPoint as="offset"/>
                    </mxGeometry>
                </mxCell>
                <mxCell id="rel5" value="" style="endArrow=classic;html=1;rounded=0;exitX=0.5;exitY=1;exitDx=0;exitDy=0;entryX=0.5;entryY=0;entryDx=0;entryDy=0;" parent="1" source="project" target="project_group" edge="1">
                    <mxGeometry width="50" height="50" relative="1" as="geometry">
                        <mxPoint x="200" y="500" as="sourcePoint"/>
                        <mxPoint x="200" y="900" as="targetPoint"/>
                    </mxGeometry>
                </mxCell>
                <mxCell id="rel5-label" value="1:N" style="edgeLabel;html=1;align=center;verticalAlign=middle;resizable=0;points=[];" parent="rel5" vertex="1" connectable="0">
                    <mxGeometry x="-0.1" y="-1" relative="1" as="geometry">
                        <mxPoint as="offset"/>
                    </mxGeometry>
                </mxCell>
                <mxCell id="rel6" value="" style="endArrow=classic;html=1;rounded=0;exitX=1;exitY=0.5;exitDx=0;exitDy=0;entryX=0;entryY=0.5;entryDx=0;entryDy=0;" parent="1" source="tile" target="bom_item" edge="1">
                    <mxGeometry width="50" height="50" relative="1" as="geometry">
                        <mxPoint x="350" y="700" as="sourcePoint"/>
                        <mxPoint x="350" y="650" as="targetPoint"/>
                    </mxGeometry>
                </mxCell>
                <mxCell id="rel6-label" value="1:N" style="edgeLabel;html=1;align=center;verticalAlign=middle;resizable=0;points=[];" parent="rel6" vertex="1" connectable="0">
                    <mxGeometry x="-0.1" y="-1" relative="1" as="geometry">
                        <mxPoint as="offset"/>
                    </mxGeometry>
                </mxCell>
                <mxCell id="rel7" value="" style="endArrow=classic;html=1;rounded=0;exitX=1;exitY=0.8;exitDx=0;exitDy=0;entryX=0;entryY=0.5;entryDx=0;entryDy=0;" parent="1" source="tile" target="tile_material" edge="1">
                    <mxGeometry width="50" height="50" relative="1" as="geometry">
                        <mxPoint x="350" y="790" as="sourcePoint"/>
                        <mxPoint x="350" y="900" as="targetPoint"/>
                    </mxGeometry>
                </mxCell>
                <mxCell id="rel7-label" value="1:N" style="edgeLabel;html=1;align=center;verticalAlign=middle;resizable=0;points=[];" parent="rel7" vertex="1" connectable="0">
                    <mxGeometry x="-0.1" y="-1" relative="1" as="geometry">
                        <mxPoint as="offset"/>
                    </mxGeometry>
                </mxCell>
                <mxCell id="rel8" value="" style="endArrow=classic;html=1;rounded=0;exitX=0;exitY=1;exitDx=0;exitDy=0;entryX=1;entryY=0.5;entryDx=0;entryDy=0;" parent="1" source="material" target="tile_material" edge="1">
                    <mxGeometry width="50" height="50" relative="1" as="geometry">
                        <mxPoint x="700" y="400" as="sourcePoint"/>
                        <mxPoint x="550" y="900" as="targetPoint"/>
                    </mxGeometry>
                </mxCell>
                <mxCell id="rel8-label" value="1:N" style="edgeLabel;html=1;align=center;verticalAlign=middle;resizable=0;points=[];" parent="rel8" vertex="1" connectable="0">
                    <mxGeometry x="-0.1" y="-1" relative="1" as="geometry">
                        <mxPoint as="offset"/>
                    </mxGeometry>
                </mxCell>
                <mxCell id="rel9" value="" style="endArrow=classic;html=1;rounded=0;exitX=0.5;exitY=1;exitDx=0;exitDy=0;entryX=0.5;entryY=0;entryDx=0;entryDy=0;" parent="1" source="subcontractor" target="subcontractor_order" edge="1">
                    <mxGeometry width="50" height="50" relative="1" as="geometry">
                        <mxPoint x="1100" y="400" as="sourcePoint"/>
                        <mxPoint x="1100" y="450" as="targetPoint"/>
                    </mxGeometry>
                </mxCell>
                <mxCell id="rel9-label" value="1:N" style="edgeLabel;html=1;align=center;verticalAlign=middle;resizable=0;points=[];" parent="rel9" vertex="1" connectable="0">
                    <mxGeometry x="-0.1" y="-1" relative="1" as="geometry">
                        <mxPoint as="offset"/>
                    </mxGeometry>
                </mxCell>
                <mxCell id="rel10" value="" style="endArrow=classic;html=1;rounded=0;exitX=1;exitY=0.2;exitDx=0;exitDy=0;entryX=0;entryY=0.8;entryDx=0;entryDy=0;" parent="1" source="tile" target="subcontractor_order" edge="1">
                    <mxGeometry width="50" height="50" relative="1" as="geometry">
                        <mxPoint x="350" y="610" as="sourcePoint"/>
                        <mxPoint x="1000" y="650" as="targetPoint"/>
                    </mxGeometry>
                </mxCell>
                <mxCell id="rel10-label" value="1:N" style="edgeLabel;html=1;align=center;verticalAlign=middle;resizable=0;points=[];" parent="rel10" vertex="1" connectable="0">
                    <mxGeometry x="-0.1" y="-1" relative="1" as="geometry">
                        <mxPoint as="offset"/>
                    </mxGeometry>
                </mxCell>
            </root>
        </mxGraphModel>
    </diagram>
</mxfile>